<svg xmlns="http://www.w3.org/2000/svg"  viewBox="0 0 3333 3333" shape-rendering="geometricPrecision" text-rendering="geometricPrecision" image-rendering="optimizeQuality" fill-rule="evenodd" clip-rule="evenodd"><path d="M1170 0h967c159 0 353 205 384 360l346 1745c31 156-170 379-328 379H986c-376 0-589-75-504-529L780 375C809 219 1011 0 1170 0zM707 3333l268-621h331l-88 200h886l-91-205h325l265 616h-319l-94-205H1121l-88 217H708zm531-1469c118 0 214 96 214 214s-96 214-214 214-214-96-214-214 96-214 214-214zm227-1662h386c10 0 18 8 18 18v181c0 10-8 18-18 18h-386c-10 0-18-8-18-18V220c0-10 8-18 18-18zM742 1665L953 624h1424l197 1041H742zm1336 199c118 0 214 96 214 214s-96 214-214 214-214-96-214-214 96-214 214-214z"/></svg>